<?xml version="1.0" encoding="utf-8" standalone="no"?>
<!DOCTYPE svg PUBLIC "-//W3C//DTD SVG 1.1//EN"
  "http://www.w3.org/Graphics/SVG/1.1/DTD/svg11.dtd">
<svg xmlns:xlink="http://www.w3.org/1999/xlink" width="745.141875pt" height="444.076704pt" viewBox="0 0 745.141875 444.076704" xmlns="http://www.w3.org/2000/svg" version="1.1">
 <metadata>
  <rdf:RDF xmlns:dc="http://purl.org/dc/elements/1.1/" xmlns:cc="http://creativecommons.org/ns#" xmlns:rdf="http://www.w3.org/1999/02/22-rdf-syntax-ns#">
   <cc:Work>
    <dc:type rdf:resource="http://purl.org/dc/dcmitype/StillImage"/>
    <dc:date>2024-11-08T16:14:49.164283</dc:date>
    <dc:format>image/svg+xml</dc:format>
    <dc:creator>
     <cc:Agent>
      <dc:title>Matplotlib v3.9.2, https://matplotlib.org/</dc:title>
     </cc:Agent>
    </dc:creator>
   </cc:Work>
  </rdf:RDF>
 </metadata>
 <defs>
  <style type="text/css">*{stroke-linejoin: round; stroke-linecap: butt}</style>
 </defs>
 <g id="figure_1">
  <g id="patch_1">
   <path d="M 0 444.076704 
L 745.141875 444.076704 
L 745.141875 0 
L 0 0 
z
" style="fill: #ffffff"/>
  </g>
  <g id="axes_1">
   <g id="patch_2">
    <path d="M 48.90125 356.78175 
L 606.90125 356.78175 
L 606.90125 24.14175 
L 48.90125 24.14175 
z
" style="fill: #e5e5e5"/>
   </g>
   <g id="matplotlib.axis_1">
    <g id="xtick_1">
     <g id="line2d_1">
      <path d="M 83.77625 356.78175 
L 83.77625 24.14175 
" clip-path="url(#pb5592a643b)" style="fill: none; stroke: #ffffff; stroke-width: 0.8; stroke-linecap: square"/>
     </g>
     <g id="line2d_2">
      <defs>
       <path id="m3fc86e850e" d="M 0 0 
L 0 3.5 
" style="stroke: #555555; stroke-width: 0.8"/>
      </defs>
      <g>
       <use xlink:href="#m3fc86e850e" x="83.77625" y="356.78175" style="fill: #555555; stroke: #555555; stroke-width: 0.8"/>
      </g>
     </g>
     <g id="text_1">
      <!-- All Three -->
      <g style="fill: #555555" transform="translate(70.095943 400.417615) rotate(-45) scale(0.1 -0.1)">
       <defs>
        <path id="DejaVuSans-41" d="M 2188 4044 
L 1331 1722 
L 3047 1722 
L 2188 4044 
z
M 1831 4666 
L 2547 4666 
L 4325 0 
L 3669 0 
L 3244 1197 
L 1141 1197 
L 716 0 
L 50 0 
L 1831 4666 
z
" transform="scale(0.015625)"/>
        <path id="DejaVuSans-6c" d="M 603 4863 
L 1178 4863 
L 1178 0 
L 603 0 
L 603 4863 
z
" transform="scale(0.015625)"/>
        <path id="DejaVuSans-20" transform="scale(0.015625)"/>
        <path id="DejaVuSans-54" d="M -19 4666 
L 3928 4666 
L 3928 4134 
L 2272 4134 
L 2272 0 
L 1638 0 
L 1638 4134 
L -19 4134 
L -19 4666 
z
" transform="scale(0.015625)"/>
        <path id="DejaVuSans-68" d="M 3513 2113 
L 3513 0 
L 2938 0 
L 2938 2094 
Q 2938 2591 2744 2837 
Q 2550 3084 2163 3084 
Q 1697 3084 1428 2787 
Q 1159 2491 1159 1978 
L 1159 0 
L 581 0 
L 581 4863 
L 1159 4863 
L 1159 2956 
Q 1366 3272 1645 3428 
Q 1925 3584 2291 3584 
Q 2894 3584 3203 3211 
Q 3513 2838 3513 2113 
z
" transform="scale(0.015625)"/>
        <path id="DejaVuSans-72" d="M 2631 2963 
Q 2534 3019 2420 3045 
Q 2306 3072 2169 3072 
Q 1681 3072 1420 2755 
Q 1159 2438 1159 1844 
L 1159 0 
L 581 0 
L 581 3500 
L 1159 3500 
L 1159 2956 
Q 1341 3275 1631 3429 
Q 1922 3584 2338 3584 
Q 2397 3584 2469 3576 
Q 2541 3569 2628 3553 
L 2631 2963 
z
" transform="scale(0.015625)"/>
        <path id="DejaVuSans-65" d="M 3597 1894 
L 3597 1613 
L 953 1613 
Q 991 1019 1311 708 
Q 1631 397 2203 397 
Q 2534 397 2845 478 
Q 3156 559 3463 722 
L 3463 178 
Q 3153 47 2828 -22 
Q 2503 -91 2169 -91 
Q 1331 -91 842 396 
Q 353 884 353 1716 
Q 353 2575 817 3079 
Q 1281 3584 2069 3584 
Q 2775 3584 3186 3129 
Q 3597 2675 3597 1894 
z
M 3022 2063 
Q 3016 2534 2758 2815 
Q 2500 3097 2075 3097 
Q 1594 3097 1305 2825 
Q 1016 2553 972 2059 
L 3022 2063 
z
" transform="scale(0.015625)"/>
       </defs>
       <use xlink:href="#DejaVuSans-41"/>
       <use xlink:href="#DejaVuSans-6c" x="68.408203"/>
       <use xlink:href="#DejaVuSans-6c" x="96.191406"/>
       <use xlink:href="#DejaVuSans-20" x="123.974609"/>
       <use xlink:href="#DejaVuSans-54" x="155.761719"/>
       <use xlink:href="#DejaVuSans-68" x="216.845703"/>
       <use xlink:href="#DejaVuSans-72" x="280.224609"/>
       <use xlink:href="#DejaVuSans-65" x="319.087891"/>
       <use xlink:href="#DejaVuSans-65" x="380.611328"/>
      </g>
     </g>
    </g>
    <g id="xtick_2">
     <g id="line2d_3">
      <path d="M 153.52625 356.78175 
L 153.52625 24.14175 
" clip-path="url(#pb5592a643b)" style="fill: none; stroke: #ffffff; stroke-width: 0.8; stroke-linecap: square"/>
     </g>
     <g id="line2d_4">
      <g>
       <use xlink:href="#m3fc86e850e" x="153.52625" y="356.78175" style="fill: #555555; stroke: #555555; stroke-width: 0.8"/>
      </g>
     </g>
     <g id="text_2">
      <!-- Partner Only -->
      <g style="fill: #555555" transform="translate(133.406852 413.295797) rotate(-45) scale(0.1 -0.1)">
       <defs>
        <path id="DejaVuSans-50" d="M 1259 4147 
L 1259 2394 
L 2053 2394 
Q 2494 2394 2734 2622 
Q 2975 2850 2975 3272 
Q 2975 3691 2734 3919 
Q 2494 4147 2053 4147 
L 1259 4147 
z
M 628 4666 
L 2053 4666 
Q 2838 4666 3239 4311 
Q 3641 3956 3641 3272 
Q 3641 2581 3239 2228 
Q 2838 1875 2053 1875 
L 1259 1875 
L 1259 0 
L 628 0 
L 628 4666 
z
" transform="scale(0.015625)"/>
        <path id="DejaVuSans-61" d="M 2194 1759 
Q 1497 1759 1228 1600 
Q 959 1441 959 1056 
Q 959 750 1161 570 
Q 1363 391 1709 391 
Q 2188 391 2477 730 
Q 2766 1069 2766 1631 
L 2766 1759 
L 2194 1759 
z
M 3341 1997 
L 3341 0 
L 2766 0 
L 2766 531 
Q 2569 213 2275 61 
Q 1981 -91 1556 -91 
Q 1019 -91 701 211 
Q 384 513 384 1019 
Q 384 1609 779 1909 
Q 1175 2209 1959 2209 
L 2766 2209 
L 2766 2266 
Q 2766 2663 2505 2880 
Q 2244 3097 1772 3097 
Q 1472 3097 1187 3025 
Q 903 2953 641 2809 
L 641 3341 
Q 956 3463 1253 3523 
Q 1550 3584 1831 3584 
Q 2591 3584 2966 3190 
Q 3341 2797 3341 1997 
z
" transform="scale(0.015625)"/>
        <path id="DejaVuSans-74" d="M 1172 4494 
L 1172 3500 
L 2356 3500 
L 2356 3053 
L 1172 3053 
L 1172 1153 
Q 1172 725 1289 603 
Q 1406 481 1766 481 
L 2356 481 
L 2356 0 
L 1766 0 
Q 1100 0 847 248 
Q 594 497 594 1153 
L 594 3053 
L 172 3053 
L 172 3500 
L 594 3500 
L 594 4494 
L 1172 4494 
z
" transform="scale(0.015625)"/>
        <path id="DejaVuSans-6e" d="M 3513 2113 
L 3513 0 
L 2938 0 
L 2938 2094 
Q 2938 2591 2744 2837 
Q 2550 3084 2163 3084 
Q 1697 3084 1428 2787 
Q 1159 2491 1159 1978 
L 1159 0 
L 581 0 
L 581 3500 
L 1159 3500 
L 1159 2956 
Q 1366 3272 1645 3428 
Q 1925 3584 2291 3584 
Q 2894 3584 3203 3211 
Q 3513 2838 3513 2113 
z
" transform="scale(0.015625)"/>
        <path id="DejaVuSans-4f" d="M 2522 4238 
Q 1834 4238 1429 3725 
Q 1025 3213 1025 2328 
Q 1025 1447 1429 934 
Q 1834 422 2522 422 
Q 3209 422 3611 934 
Q 4013 1447 4013 2328 
Q 4013 3213 3611 3725 
Q 3209 4238 2522 4238 
z
M 2522 4750 
Q 3503 4750 4090 4092 
Q 4678 3434 4678 2328 
Q 4678 1225 4090 567 
Q 3503 -91 2522 -91 
Q 1538 -91 948 565 
Q 359 1222 359 2328 
Q 359 3434 948 4092 
Q 1538 4750 2522 4750 
z
" transform="scale(0.015625)"/>
        <path id="DejaVuSans-79" d="M 2059 -325 
Q 1816 -950 1584 -1140 
Q 1353 -1331 966 -1331 
L 506 -1331 
L 506 -850 
L 844 -850 
Q 1081 -850 1212 -737 
Q 1344 -625 1503 -206 
L 1606 56 
L 191 3500 
L 800 3500 
L 1894 763 
L 2988 3500 
L 3597 3500 
L 2059 -325 
z
" transform="scale(0.015625)"/>
       </defs>
       <use xlink:href="#DejaVuSans-50"/>
       <use xlink:href="#DejaVuSans-61" x="55.802734"/>
       <use xlink:href="#DejaVuSans-72" x="117.082031"/>
       <use xlink:href="#DejaVuSans-74" x="158.195312"/>
       <use xlink:href="#DejaVuSans-6e" x="197.404297"/>
       <use xlink:href="#DejaVuSans-65" x="260.783203"/>
       <use xlink:href="#DejaVuSans-72" x="322.306641"/>
       <use xlink:href="#DejaVuSans-20" x="363.419922"/>
       <use xlink:href="#DejaVuSans-4f" x="395.207031"/>
       <use xlink:href="#DejaVuSans-6e" x="473.917969"/>
       <use xlink:href="#DejaVuSans-6c" x="537.296875"/>
       <use xlink:href="#DejaVuSans-79" x="565.080078"/>
      </g>
     </g>
    </g>
    <g id="xtick_3">
     <g id="line2d_5">
      <path d="M 223.27625 356.78175 
L 223.27625 24.14175 
" clip-path="url(#pb5592a643b)" style="fill: none; stroke: #ffffff; stroke-width: 0.8; stroke-linecap: square"/>
     </g>
     <g id="line2d_6">
      <g>
       <use xlink:href="#m3fc86e850e" x="223.27625" y="356.78175" style="fill: #555555; stroke: #555555; stroke-width: 0.8"/>
      </g>
     </g>
     <g id="text_3">
      <!-- Family Only -->
      <g style="fill: #555555" transform="translate(204.626861 410.35578) rotate(-45) scale(0.1 -0.1)">
       <defs>
        <path id="DejaVuSans-46" d="M 628 4666 
L 3309 4666 
L 3309 4134 
L 1259 4134 
L 1259 2759 
L 3109 2759 
L 3109 2228 
L 1259 2228 
L 1259 0 
L 628 0 
L 628 4666 
z
" transform="scale(0.015625)"/>
        <path id="DejaVuSans-6d" d="M 3328 2828 
Q 3544 3216 3844 3400 
Q 4144 3584 4550 3584 
Q 5097 3584 5394 3201 
Q 5691 2819 5691 2113 
L 5691 0 
L 5113 0 
L 5113 2094 
Q 5113 2597 4934 2840 
Q 4756 3084 4391 3084 
Q 3944 3084 3684 2787 
Q 3425 2491 3425 1978 
L 3425 0 
L 2847 0 
L 2847 2094 
Q 2847 2600 2669 2842 
Q 2491 3084 2119 3084 
Q 1678 3084 1418 2786 
Q 1159 2488 1159 1978 
L 1159 0 
L 581 0 
L 581 3500 
L 1159 3500 
L 1159 2956 
Q 1356 3278 1631 3431 
Q 1906 3584 2284 3584 
Q 2666 3584 2933 3390 
Q 3200 3197 3328 2828 
z
" transform="scale(0.015625)"/>
        <path id="DejaVuSans-69" d="M 603 3500 
L 1178 3500 
L 1178 0 
L 603 0 
L 603 3500 
z
M 603 4863 
L 1178 4863 
L 1178 4134 
L 603 4134 
L 603 4863 
z
" transform="scale(0.015625)"/>
       </defs>
       <use xlink:href="#DejaVuSans-46"/>
       <use xlink:href="#DejaVuSans-61" x="48.394531"/>
       <use xlink:href="#DejaVuSans-6d" x="109.673828"/>
       <use xlink:href="#DejaVuSans-69" x="207.085938"/>
       <use xlink:href="#DejaVuSans-6c" x="234.869141"/>
       <use xlink:href="#DejaVuSans-79" x="262.652344"/>
       <use xlink:href="#DejaVuSans-20" x="321.832031"/>
       <use xlink:href="#DejaVuSans-4f" x="353.619141"/>
       <use xlink:href="#DejaVuSans-6e" x="432.330078"/>
       <use xlink:href="#DejaVuSans-6c" x="495.708984"/>
       <use xlink:href="#DejaVuSans-79" x="523.492188"/>
      </g>
     </g>
    </g>
    <g id="xtick_4">
     <g id="line2d_7">
      <path d="M 293.02625 356.78175 
L 293.02625 24.14175 
" clip-path="url(#pb5592a643b)" style="fill: none; stroke: #ffffff; stroke-width: 0.8; stroke-linecap: square"/>
     </g>
     <g id="line2d_8">
      <g>
       <use xlink:href="#m3fc86e850e" x="293.02625" y="356.78175" style="fill: #555555; stroke: #555555; stroke-width: 0.8"/>
      </g>
     </g>
     <g id="text_4">
      <!-- Friend Only -->
      <g style="fill: #555555" transform="translate(274.88178 409.345943) rotate(-45) scale(0.1 -0.1)">
       <defs>
        <path id="DejaVuSans-64" d="M 2906 2969 
L 2906 4863 
L 3481 4863 
L 3481 0 
L 2906 0 
L 2906 525 
Q 2725 213 2448 61 
Q 2172 -91 1784 -91 
Q 1150 -91 751 415 
Q 353 922 353 1747 
Q 353 2572 751 3078 
Q 1150 3584 1784 3584 
Q 2172 3584 2448 3432 
Q 2725 3281 2906 2969 
z
M 947 1747 
Q 947 1113 1208 752 
Q 1469 391 1925 391 
Q 2381 391 2643 752 
Q 2906 1113 2906 1747 
Q 2906 2381 2643 2742 
Q 2381 3103 1925 3103 
Q 1469 3103 1208 2742 
Q 947 2381 947 1747 
z
" transform="scale(0.015625)"/>
       </defs>
       <use xlink:href="#DejaVuSans-46"/>
       <use xlink:href="#DejaVuSans-72" x="50.269531"/>
       <use xlink:href="#DejaVuSans-69" x="91.382812"/>
       <use xlink:href="#DejaVuSans-65" x="119.166016"/>
       <use xlink:href="#DejaVuSans-6e" x="180.689453"/>
       <use xlink:href="#DejaVuSans-64" x="244.068359"/>
       <use xlink:href="#DejaVuSans-20" x="307.544922"/>
       <use xlink:href="#DejaVuSans-4f" x="339.332031"/>
       <use xlink:href="#DejaVuSans-6e" x="418.042969"/>
       <use xlink:href="#DejaVuSans-6c" x="481.421875"/>
       <use xlink:href="#DejaVuSans-79" x="509.205078"/>
      </g>
     </g>
    </g>
    <g id="xtick_5">
     <g id="line2d_9">
      <path d="M 362.77625 356.78175 
L 362.77625 24.14175 
" clip-path="url(#pb5592a643b)" style="fill: none; stroke: #ffffff; stroke-width: 0.8; stroke-linecap: square"/>
     </g>
     <g id="line2d_10">
      <g>
       <use xlink:href="#m3fc86e850e" x="362.77625" y="356.78175" style="fill: #555555; stroke: #555555; stroke-width: 0.8"/>
      </g>
     </g>
     <g id="text_5">
      <!-- Partner and Family -->
      <g style="fill: #555555" transform="translate(331.60168 435.406143) rotate(-45) scale(0.1 -0.1)">
       <use xlink:href="#DejaVuSans-50"/>
       <use xlink:href="#DejaVuSans-61" x="55.802734"/>
       <use xlink:href="#DejaVuSans-72" x="117.082031"/>
       <use xlink:href="#DejaVuSans-74" x="158.195312"/>
       <use xlink:href="#DejaVuSans-6e" x="197.404297"/>
       <use xlink:href="#DejaVuSans-65" x="260.783203"/>
       <use xlink:href="#DejaVuSans-72" x="322.306641"/>
       <use xlink:href="#DejaVuSans-20" x="363.419922"/>
       <use xlink:href="#DejaVuSans-61" x="395.207031"/>
       <use xlink:href="#DejaVuSans-6e" x="456.486328"/>
       <use xlink:href="#DejaVuSans-64" x="519.865234"/>
       <use xlink:href="#DejaVuSans-20" x="583.341797"/>
       <use xlink:href="#DejaVuSans-46" x="615.128906"/>
       <use xlink:href="#DejaVuSans-61" x="663.523438"/>
       <use xlink:href="#DejaVuSans-6d" x="724.802734"/>
       <use xlink:href="#DejaVuSans-69" x="822.214844"/>
       <use xlink:href="#DejaVuSans-6c" x="849.998047"/>
       <use xlink:href="#DejaVuSans-79" x="877.78125"/>
      </g>
     </g>
    </g>
    <g id="xtick_6">
     <g id="line2d_11">
      <path d="M 432.52625 356.78175 
L 432.52625 24.14175 
" clip-path="url(#pb5592a643b)" style="fill: none; stroke: #ffffff; stroke-width: 0.8; stroke-linecap: square"/>
     </g>
     <g id="line2d_12">
      <g>
       <use xlink:href="#m3fc86e850e" x="432.52625" y="356.78175" style="fill: #555555; stroke: #555555; stroke-width: 0.8"/>
      </g>
     </g>
     <g id="text_6">
      <!-- Partner and Friend -->
      <g style="fill: #555555" transform="translate(401.856598 434.396306) rotate(-45) scale(0.1 -0.1)">
       <use xlink:href="#DejaVuSans-50"/>
       <use xlink:href="#DejaVuSans-61" x="55.802734"/>
       <use xlink:href="#DejaVuSans-72" x="117.082031"/>
       <use xlink:href="#DejaVuSans-74" x="158.195312"/>
       <use xlink:href="#DejaVuSans-6e" x="197.404297"/>
       <use xlink:href="#DejaVuSans-65" x="260.783203"/>
       <use xlink:href="#DejaVuSans-72" x="322.306641"/>
       <use xlink:href="#DejaVuSans-20" x="363.419922"/>
       <use xlink:href="#DejaVuSans-61" x="395.207031"/>
       <use xlink:href="#DejaVuSans-6e" x="456.486328"/>
       <use xlink:href="#DejaVuSans-64" x="519.865234"/>
       <use xlink:href="#DejaVuSans-20" x="583.341797"/>
       <use xlink:href="#DejaVuSans-46" x="615.128906"/>
       <use xlink:href="#DejaVuSans-72" x="665.398438"/>
       <use xlink:href="#DejaVuSans-69" x="706.511719"/>
       <use xlink:href="#DejaVuSans-65" x="734.294922"/>
       <use xlink:href="#DejaVuSans-6e" x="795.818359"/>
       <use xlink:href="#DejaVuSans-64" x="859.197266"/>
      </g>
     </g>
    </g>
    <g id="xtick_7">
     <g id="line2d_13">
      <path d="M 502.27625 356.78175 
L 502.27625 24.14175 
" clip-path="url(#pb5592a643b)" style="fill: none; stroke: #ffffff; stroke-width: 0.8; stroke-linecap: square"/>
     </g>
     <g id="line2d_14">
      <g>
       <use xlink:href="#m3fc86e850e" x="502.27625" y="356.78175" style="fill: #555555; stroke: #555555; stroke-width: 0.8"/>
      </g>
     </g>
     <g id="text_7">
      <!-- Family and Friend -->
      <g style="fill: #555555" transform="translate(473.076607 431.456288) rotate(-45) scale(0.1 -0.1)">
       <use xlink:href="#DejaVuSans-46"/>
       <use xlink:href="#DejaVuSans-61" x="48.394531"/>
       <use xlink:href="#DejaVuSans-6d" x="109.673828"/>
       <use xlink:href="#DejaVuSans-69" x="207.085938"/>
       <use xlink:href="#DejaVuSans-6c" x="234.869141"/>
       <use xlink:href="#DejaVuSans-79" x="262.652344"/>
       <use xlink:href="#DejaVuSans-20" x="321.832031"/>
       <use xlink:href="#DejaVuSans-61" x="353.619141"/>
       <use xlink:href="#DejaVuSans-6e" x="414.898438"/>
       <use xlink:href="#DejaVuSans-64" x="478.277344"/>
       <use xlink:href="#DejaVuSans-20" x="541.753906"/>
       <use xlink:href="#DejaVuSans-46" x="573.541016"/>
       <use xlink:href="#DejaVuSans-72" x="623.810547"/>
       <use xlink:href="#DejaVuSans-69" x="664.923828"/>
       <use xlink:href="#DejaVuSans-65" x="692.707031"/>
       <use xlink:href="#DejaVuSans-6e" x="754.230469"/>
       <use xlink:href="#DejaVuSans-64" x="817.609375"/>
      </g>
     </g>
    </g>
    <g id="xtick_8">
     <g id="line2d_15">
      <path d="M 572.02625 356.78175 
L 572.02625 24.14175 
" clip-path="url(#pb5592a643b)" style="fill: none; stroke: #ffffff; stroke-width: 0.8; stroke-linecap: square"/>
     </g>
     <g id="line2d_16">
      <g>
       <use xlink:href="#m3fc86e850e" x="572.02625" y="356.78175" style="fill: #555555; stroke: #555555; stroke-width: 0.8"/>
      </g>
     </g>
     <g id="text_8">
      <!-- None -->
      <g style="fill: #555555" transform="translate(564.752994 387.603515) rotate(-45) scale(0.1 -0.1)">
       <defs>
        <path id="DejaVuSans-4e" d="M 628 4666 
L 1478 4666 
L 3547 763 
L 3547 4666 
L 4159 4666 
L 4159 0 
L 3309 0 
L 1241 3903 
L 1241 0 
L 628 0 
L 628 4666 
z
" transform="scale(0.015625)"/>
        <path id="DejaVuSans-6f" d="M 1959 3097 
Q 1497 3097 1228 2736 
Q 959 2375 959 1747 
Q 959 1119 1226 758 
Q 1494 397 1959 397 
Q 2419 397 2687 759 
Q 2956 1122 2956 1747 
Q 2956 2369 2687 2733 
Q 2419 3097 1959 3097 
z
M 1959 3584 
Q 2709 3584 3137 3096 
Q 3566 2609 3566 1747 
Q 3566 888 3137 398 
Q 2709 -91 1959 -91 
Q 1206 -91 779 398 
Q 353 888 353 1747 
Q 353 2609 779 3096 
Q 1206 3584 1959 3584 
z
" transform="scale(0.015625)"/>
       </defs>
       <use xlink:href="#DejaVuSans-4e"/>
       <use xlink:href="#DejaVuSans-6f" x="74.804688"/>
       <use xlink:href="#DejaVuSans-6e" x="135.986328"/>
       <use xlink:href="#DejaVuSans-65" x="199.365234"/>
      </g>
     </g>
    </g>
   </g>
   <g id="matplotlib.axis_2">
    <g id="ytick_1">
     <g id="line2d_17">
      <defs>
       <path id="m27596dd5a2" d="M 0 0 
L -3.5 0 
" style="stroke: #555555; stroke-width: 0.8"/>
      </defs>
      <g>
       <use xlink:href="#m27596dd5a2" x="48.90125" y="356.78175" style="fill: #555555; stroke: #555555; stroke-width: 0.8"/>
      </g>
     </g>
     <g id="text_9">
      <!-- 0 -->
      <g style="fill: #555555" transform="translate(35.53875 360.580969) scale(0.1 -0.1)">
       <defs>
        <path id="DejaVuSans-30" d="M 2034 4250 
Q 1547 4250 1301 3770 
Q 1056 3291 1056 2328 
Q 1056 1369 1301 889 
Q 1547 409 2034 409 
Q 2525 409 2770 889 
Q 3016 1369 3016 2328 
Q 3016 3291 2770 3770 
Q 2525 4250 2034 4250 
z
M 2034 4750 
Q 2819 4750 3233 4129 
Q 3647 3509 3647 2328 
Q 3647 1150 3233 529 
Q 2819 -91 2034 -91 
Q 1250 -91 836 529 
Q 422 1150 422 2328 
Q 422 3509 836 4129 
Q 1250 4750 2034 4750 
z
" transform="scale(0.015625)"/>
       </defs>
       <use xlink:href="#DejaVuSans-30"/>
      </g>
     </g>
    </g>
    <g id="ytick_2">
     <g id="line2d_18">
      <g>
       <use xlink:href="#m27596dd5a2" x="48.90125" y="292.652195" style="fill: #555555; stroke: #555555; stroke-width: 0.8"/>
      </g>
     </g>
     <g id="text_10">
      <!-- 50 -->
      <g style="fill: #555555" transform="translate(29.17625 296.451414) scale(0.1 -0.1)">
       <defs>
        <path id="DejaVuSans-35" d="M 691 4666 
L 3169 4666 
L 3169 4134 
L 1269 4134 
L 1269 2991 
Q 1406 3038 1543 3061 
Q 1681 3084 1819 3084 
Q 2600 3084 3056 2656 
Q 3513 2228 3513 1497 
Q 3513 744 3044 326 
Q 2575 -91 1722 -91 
Q 1428 -91 1123 -41 
Q 819 9 494 109 
L 494 744 
Q 775 591 1075 516 
Q 1375 441 1709 441 
Q 2250 441 2565 725 
Q 2881 1009 2881 1497 
Q 2881 1984 2565 2268 
Q 2250 2553 1709 2553 
Q 1456 2553 1204 2497 
Q 953 2441 691 2322 
L 691 4666 
z
" transform="scale(0.015625)"/>
       </defs>
       <use xlink:href="#DejaVuSans-35"/>
       <use xlink:href="#DejaVuSans-30" x="63.623047"/>
      </g>
     </g>
    </g>
    <g id="ytick_3">
     <g id="line2d_19">
      <g>
       <use xlink:href="#m27596dd5a2" x="48.90125" y="228.522641" style="fill: #555555; stroke: #555555; stroke-width: 0.8"/>
      </g>
     </g>
     <g id="text_11">
      <!-- 100 -->
      <g style="fill: #555555" transform="translate(22.81375 232.321859) scale(0.1 -0.1)">
       <defs>
        <path id="DejaVuSans-31" d="M 794 531 
L 1825 531 
L 1825 4091 
L 703 3866 
L 703 4441 
L 1819 4666 
L 2450 4666 
L 2450 531 
L 3481 531 
L 3481 0 
L 794 0 
L 794 531 
z
" transform="scale(0.015625)"/>
       </defs>
       <use xlink:href="#DejaVuSans-31"/>
       <use xlink:href="#DejaVuSans-30" x="63.623047"/>
       <use xlink:href="#DejaVuSans-30" x="127.246094"/>
      </g>
     </g>
    </g>
    <g id="ytick_4">
     <g id="line2d_20">
      <g>
       <use xlink:href="#m27596dd5a2" x="48.90125" y="164.393086" style="fill: #555555; stroke: #555555; stroke-width: 0.8"/>
      </g>
     </g>
     <g id="text_12">
      <!-- 150 -->
      <g style="fill: #555555" transform="translate(22.81375 168.192305) scale(0.1 -0.1)">
       <use xlink:href="#DejaVuSans-31"/>
       <use xlink:href="#DejaVuSans-35" x="63.623047"/>
       <use xlink:href="#DejaVuSans-30" x="127.246094"/>
      </g>
     </g>
    </g>
    <g id="ytick_5">
     <g id="line2d_21">
      <g>
       <use xlink:href="#m27596dd5a2" x="48.90125" y="100.263531" style="fill: #555555; stroke: #555555; stroke-width: 0.8"/>
      </g>
     </g>
     <g id="text_13">
      <!-- 200 -->
      <g style="fill: #555555" transform="translate(22.81375 104.06275) scale(0.1 -0.1)">
       <defs>
        <path id="DejaVuSans-32" d="M 1228 531 
L 3431 531 
L 3431 0 
L 469 0 
L 469 531 
Q 828 903 1448 1529 
Q 2069 2156 2228 2338 
Q 2531 2678 2651 2914 
Q 2772 3150 2772 3378 
Q 2772 3750 2511 3984 
Q 2250 4219 1831 4219 
Q 1534 4219 1204 4116 
Q 875 4013 500 3803 
L 500 4441 
Q 881 4594 1212 4672 
Q 1544 4750 1819 4750 
Q 2544 4750 2975 4387 
Q 3406 4025 3406 3419 
Q 3406 3131 3298 2873 
Q 3191 2616 2906 2266 
Q 2828 2175 2409 1742 
Q 1991 1309 1228 531 
z
" transform="scale(0.015625)"/>
       </defs>
       <use xlink:href="#DejaVuSans-32"/>
       <use xlink:href="#DejaVuSans-30" x="63.623047"/>
       <use xlink:href="#DejaVuSans-30" x="127.246094"/>
      </g>
     </g>
    </g>
    <g id="ytick_6">
     <g id="line2d_22">
      <g>
       <use xlink:href="#m27596dd5a2" x="48.90125" y="36.133977" style="fill: #555555; stroke: #555555; stroke-width: 0.8"/>
      </g>
     </g>
     <g id="text_14">
      <!-- 250 -->
      <g style="fill: #555555" transform="translate(22.81375 39.933195) scale(0.1 -0.1)">
       <use xlink:href="#DejaVuSans-32"/>
       <use xlink:href="#DejaVuSans-35" x="63.623047"/>
       <use xlink:href="#DejaVuSans-30" x="127.246094"/>
      </g>
     </g>
    </g>
    <g id="text_15">
     <!-- Count -->
     <g style="fill: #555555" transform="translate(16.318125 208.279875) rotate(-90) scale(0.12 -0.12)">
      <defs>
       <path id="DejaVuSans-43" d="M 4122 4306 
L 4122 3641 
Q 3803 3938 3442 4084 
Q 3081 4231 2675 4231 
Q 1875 4231 1450 3742 
Q 1025 3253 1025 2328 
Q 1025 1406 1450 917 
Q 1875 428 2675 428 
Q 3081 428 3442 575 
Q 3803 722 4122 1019 
L 4122 359 
Q 3791 134 3420 21 
Q 3050 -91 2638 -91 
Q 1578 -91 968 557 
Q 359 1206 359 2328 
Q 359 3453 968 4101 
Q 1578 4750 2638 4750 
Q 3056 4750 3426 4639 
Q 3797 4528 4122 4306 
z
" transform="scale(0.015625)"/>
       <path id="DejaVuSans-75" d="M 544 1381 
L 544 3500 
L 1119 3500 
L 1119 1403 
Q 1119 906 1312 657 
Q 1506 409 1894 409 
Q 2359 409 2629 706 
Q 2900 1003 2900 1516 
L 2900 3500 
L 3475 3500 
L 3475 0 
L 2900 0 
L 2900 538 
Q 2691 219 2414 64 
Q 2138 -91 1772 -91 
Q 1169 -91 856 284 
Q 544 659 544 1381 
z
M 1991 3584 
L 1991 3584 
z
" transform="scale(0.015625)"/>
      </defs>
      <use xlink:href="#DejaVuSans-43"/>
      <use xlink:href="#DejaVuSans-6f" x="69.824219"/>
      <use xlink:href="#DejaVuSans-75" x="131.005859"/>
      <use xlink:href="#DejaVuSans-6e" x="194.384766"/>
      <use xlink:href="#DejaVuSans-74" x="257.763672"/>
     </g>
    </g>
   </g>
   <g id="patch_3">
    <path d="M 66.33875 356.78175 
L 101.21375 356.78175 
L 101.21375 205.436001 
L 66.33875 205.436001 
z
" clip-path="url(#pb5592a643b)" style="fill: #1f77b4"/>
   </g>
   <g id="patch_4">
    <path d="M 136.08875 356.78175 
L 170.96375 356.78175 
L 170.96375 313.173653 
L 136.08875 313.173653 
z
" clip-path="url(#pb5592a643b)" style="fill: #1f77b4"/>
   </g>
   <g id="patch_5">
    <path d="M 205.83875 356.78175 
L 240.71375 356.78175 
L 240.71375 281.108876 
L 205.83875 281.108876 
z
" clip-path="url(#pb5592a643b)" style="fill: #1f77b4"/>
   </g>
   <g id="patch_6">
    <path d="M 275.58875 356.78175 
L 310.46375 356.78175 
L 310.46375 308.043288 
L 275.58875 308.043288 
z
" clip-path="url(#pb5592a643b)" style="fill: #1f77b4"/>
   </g>
   <g id="patch_7">
    <path d="M 345.33875 356.78175 
L 380.21375 356.78175 
L 380.21375 201.588228 
L 345.33875 201.588228 
z
" clip-path="url(#pb5592a643b)" style="fill: #1f77b4"/>
   </g>
   <g id="patch_8">
    <path d="M 415.08875 356.78175 
L 449.96375 356.78175 
L 449.96375 268.282965 
L 415.08875 268.282965 
z
" clip-path="url(#pb5592a643b)" style="fill: #1f77b4"/>
   </g>
   <g id="patch_9">
    <path d="M 484.83875 356.78175 
L 519.71375 356.78175 
L 519.71375 293.934786 
L 484.83875 293.934786 
z
" clip-path="url(#pb5592a643b)" style="fill: #1f77b4"/>
   </g>
   <g id="patch_10">
    <path d="M 554.58875 356.78175 
L 589.46375 356.78175 
L 589.46375 341.390657 
L 554.58875 341.390657 
z
" clip-path="url(#pb5592a643b)" style="fill: #1f77b4"/>
   </g>
   <g id="patch_11">
    <path d="M 66.33875 205.436001 
L 101.21375 205.436001 
L 101.21375 155.414948 
L 66.33875 155.414948 
z
" clip-path="url(#pb5592a643b)" style="fill: #aec7e8"/>
   </g>
   <g id="patch_12">
    <path d="M 136.08875 313.173653 
L 170.96375 313.173653 
L 170.96375 201.588228 
L 136.08875 201.588228 
z
" clip-path="url(#pb5592a643b)" style="fill: #aec7e8"/>
   </g>
   <g id="patch_13">
    <path d="M 205.83875 281.108876 
L 240.71375 281.108876 
L 240.71375 214.414139 
L 205.83875 214.414139 
z
" clip-path="url(#pb5592a643b)" style="fill: #aec7e8"/>
   </g>
   <g id="patch_14">
    <path d="M 275.58875 308.043288 
L 310.46375 308.043288 
L 310.46375 251.60928 
L 275.58875 251.60928 
z
" clip-path="url(#pb5592a643b)" style="fill: #aec7e8"/>
   </g>
   <g id="patch_15">
    <path d="M 345.33875 201.588228 
L 380.21375 201.588228 
L 380.21375 133.6109 
L 345.33875 133.6109 
z
" clip-path="url(#pb5592a643b)" style="fill: #aec7e8"/>
   </g>
   <g id="patch_16">
    <path d="M 415.08875 268.282965 
L 449.96375 268.282965 
L 449.96375 222.109685 
L 415.08875 222.109685 
z
" clip-path="url(#pb5592a643b)" style="fill: #aec7e8"/>
   </g>
   <g id="patch_17">
    <path d="M 484.83875 293.934786 
L 519.71375 293.934786 
L 519.71375 255.457054 
L 484.83875 255.457054 
z
" clip-path="url(#pb5592a643b)" style="fill: #aec7e8"/>
   </g>
   <g id="patch_18">
    <path d="M 554.58875 341.390657 
L 589.46375 341.390657 
L 589.46375 163.110495 
L 554.58875 163.110495 
z
" clip-path="url(#pb5592a643b)" style="fill: #aec7e8"/>
   </g>
   <g id="patch_19">
    <path d="M 66.33875 155.414948 
L 101.21375 155.414948 
L 101.21375 69.481345 
L 66.33875 69.481345 
z
" clip-path="url(#pb5592a643b)" style="fill: #ff7f0e"/>
   </g>
   <g id="patch_20">
    <path d="M 136.08875 201.588228 
L 170.96375 201.588228 
L 170.96375 90.002803 
L 136.08875 90.002803 
z
" clip-path="url(#pb5592a643b)" style="fill: #ff7f0e"/>
   </g>
   <g id="patch_21">
    <path d="M 205.83875 214.414139 
L 240.71375 214.414139 
L 240.71375 128.480535 
L 205.83875 128.480535 
z
" clip-path="url(#pb5592a643b)" style="fill: #ff7f0e"/>
   </g>
   <g id="patch_22">
    <path d="M 275.58875 251.60928 
L 310.46375 251.60928 
L 310.46375 196.457863 
L 275.58875 196.457863 
z
" clip-path="url(#pb5592a643b)" style="fill: #ff7f0e"/>
   </g>
   <g id="patch_23">
    <path d="M 345.33875 133.6109 
L 380.21375 133.6109 
L 380.21375 39.98175 
L 345.33875 39.98175 
z
" clip-path="url(#pb5592a643b)" style="fill: #ff7f0e"/>
   </g>
   <g id="patch_24">
    <path d="M 415.08875 222.109685 
L 449.96375 222.109685 
L 449.96375 165.675677 
L 415.08875 165.675677 
z
" clip-path="url(#pb5592a643b)" style="fill: #ff7f0e"/>
   </g>
   <g id="patch_25">
    <path d="M 484.83875 255.457054 
L 519.71375 255.457054 
L 519.71375 225.957459 
L 484.83875 225.957459 
z
" clip-path="url(#pb5592a643b)" style="fill: #ff7f0e"/>
   </g>
   <g id="patch_26">
    <path d="M 554.58875 163.110495 
L 589.46375 163.110495 
L 589.46375 39.98175 
L 554.58875 39.98175 
z
" clip-path="url(#pb5592a643b)" style="fill: #ff7f0e"/>
   </g>
   <g id="patch_27">
    <path d="M 48.90125 356.78175 
L 48.90125 24.14175 
" style="fill: none; stroke: #ffffff; stroke-linejoin: miter; stroke-linecap: square"/>
   </g>
   <g id="patch_28">
    <path d="M 606.90125 356.78175 
L 606.90125 24.14175 
" style="fill: none; stroke: #ffffff; stroke-linejoin: miter; stroke-linecap: square"/>
   </g>
   <g id="patch_29">
    <path d="M 48.90125 356.78175 
L 606.90125 356.78175 
" style="fill: none; stroke: #ffffff; stroke-linejoin: miter; stroke-linecap: square"/>
   </g>
   <g id="patch_30">
    <path d="M 48.90125 24.14175 
L 606.90125 24.14175 
" style="fill: none; stroke: #ffffff; stroke-linejoin: miter; stroke-linecap: square"/>
   </g>
   <g id="text_16">
    <!-- Relationship by Subreddit -->
    <g transform="translate(235.397 18.14175) scale(0.144 -0.144)">
     <defs>
      <path id="DejaVuSans-52" d="M 2841 2188 
Q 3044 2119 3236 1894 
Q 3428 1669 3622 1275 
L 4263 0 
L 3584 0 
L 2988 1197 
Q 2756 1666 2539 1819 
Q 2322 1972 1947 1972 
L 1259 1972 
L 1259 0 
L 628 0 
L 628 4666 
L 2053 4666 
Q 2853 4666 3247 4331 
Q 3641 3997 3641 3322 
Q 3641 2881 3436 2590 
Q 3231 2300 2841 2188 
z
M 1259 4147 
L 1259 2491 
L 2053 2491 
Q 2509 2491 2742 2702 
Q 2975 2913 2975 3322 
Q 2975 3731 2742 3939 
Q 2509 4147 2053 4147 
L 1259 4147 
z
" transform="scale(0.015625)"/>
      <path id="DejaVuSans-73" d="M 2834 3397 
L 2834 2853 
Q 2591 2978 2328 3040 
Q 2066 3103 1784 3103 
Q 1356 3103 1142 2972 
Q 928 2841 928 2578 
Q 928 2378 1081 2264 
Q 1234 2150 1697 2047 
L 1894 2003 
Q 2506 1872 2764 1633 
Q 3022 1394 3022 966 
Q 3022 478 2636 193 
Q 2250 -91 1575 -91 
Q 1294 -91 989 -36 
Q 684 19 347 128 
L 347 722 
Q 666 556 975 473 
Q 1284 391 1588 391 
Q 1994 391 2212 530 
Q 2431 669 2431 922 
Q 2431 1156 2273 1281 
Q 2116 1406 1581 1522 
L 1381 1569 
Q 847 1681 609 1914 
Q 372 2147 372 2553 
Q 372 3047 722 3315 
Q 1072 3584 1716 3584 
Q 2034 3584 2315 3537 
Q 2597 3491 2834 3397 
z
" transform="scale(0.015625)"/>
      <path id="DejaVuSans-70" d="M 1159 525 
L 1159 -1331 
L 581 -1331 
L 581 3500 
L 1159 3500 
L 1159 2969 
Q 1341 3281 1617 3432 
Q 1894 3584 2278 3584 
Q 2916 3584 3314 3078 
Q 3713 2572 3713 1747 
Q 3713 922 3314 415 
Q 2916 -91 2278 -91 
Q 1894 -91 1617 61 
Q 1341 213 1159 525 
z
M 3116 1747 
Q 3116 2381 2855 2742 
Q 2594 3103 2138 3103 
Q 1681 3103 1420 2742 
Q 1159 2381 1159 1747 
Q 1159 1113 1420 752 
Q 1681 391 2138 391 
Q 2594 391 2855 752 
Q 3116 1113 3116 1747 
z
" transform="scale(0.015625)"/>
      <path id="DejaVuSans-62" d="M 3116 1747 
Q 3116 2381 2855 2742 
Q 2594 3103 2138 3103 
Q 1681 3103 1420 2742 
Q 1159 2381 1159 1747 
Q 1159 1113 1420 752 
Q 1681 391 2138 391 
Q 2594 391 2855 752 
Q 3116 1113 3116 1747 
z
M 1159 2969 
Q 1341 3281 1617 3432 
Q 1894 3584 2278 3584 
Q 2916 3584 3314 3078 
Q 3713 2572 3713 1747 
Q 3713 922 3314 415 
Q 2916 -91 2278 -91 
Q 1894 -91 1617 61 
Q 1341 213 1159 525 
L 1159 0 
L 581 0 
L 581 4863 
L 1159 4863 
L 1159 2969 
z
" transform="scale(0.015625)"/>
      <path id="DejaVuSans-53" d="M 3425 4513 
L 3425 3897 
Q 3066 4069 2747 4153 
Q 2428 4238 2131 4238 
Q 1616 4238 1336 4038 
Q 1056 3838 1056 3469 
Q 1056 3159 1242 3001 
Q 1428 2844 1947 2747 
L 2328 2669 
Q 3034 2534 3370 2195 
Q 3706 1856 3706 1288 
Q 3706 609 3251 259 
Q 2797 -91 1919 -91 
Q 1588 -91 1214 -16 
Q 841 59 441 206 
L 441 856 
Q 825 641 1194 531 
Q 1563 422 1919 422 
Q 2459 422 2753 634 
Q 3047 847 3047 1241 
Q 3047 1584 2836 1778 
Q 2625 1972 2144 2069 
L 1759 2144 
Q 1053 2284 737 2584 
Q 422 2884 422 3419 
Q 422 4038 858 4394 
Q 1294 4750 2059 4750 
Q 2388 4750 2728 4690 
Q 3069 4631 3425 4513 
z
" transform="scale(0.015625)"/>
     </defs>
     <use xlink:href="#DejaVuSans-52"/>
     <use xlink:href="#DejaVuSans-65" x="64.982422"/>
     <use xlink:href="#DejaVuSans-6c" x="126.505859"/>
     <use xlink:href="#DejaVuSans-61" x="154.289062"/>
     <use xlink:href="#DejaVuSans-74" x="215.568359"/>
     <use xlink:href="#DejaVuSans-69" x="254.777344"/>
     <use xlink:href="#DejaVuSans-6f" x="282.560547"/>
     <use xlink:href="#DejaVuSans-6e" x="343.742188"/>
     <use xlink:href="#DejaVuSans-73" x="407.121094"/>
     <use xlink:href="#DejaVuSans-68" x="459.220703"/>
     <use xlink:href="#DejaVuSans-69" x="522.599609"/>
     <use xlink:href="#DejaVuSans-70" x="550.382812"/>
     <use xlink:href="#DejaVuSans-20" x="613.859375"/>
     <use xlink:href="#DejaVuSans-62" x="645.646484"/>
     <use xlink:href="#DejaVuSans-79" x="709.123047"/>
     <use xlink:href="#DejaVuSans-20" x="768.302734"/>
     <use xlink:href="#DejaVuSans-53" x="800.089844"/>
     <use xlink:href="#DejaVuSans-75" x="863.566406"/>
     <use xlink:href="#DejaVuSans-62" x="926.945312"/>
     <use xlink:href="#DejaVuSans-72" x="990.421875"/>
     <use xlink:href="#DejaVuSans-65" x="1029.285156"/>
     <use xlink:href="#DejaVuSans-64" x="1090.808594"/>
     <use xlink:href="#DejaVuSans-64" x="1154.285156"/>
     <use xlink:href="#DejaVuSans-69" x="1217.761719"/>
     <use xlink:href="#DejaVuSans-74" x="1245.544922"/>
    </g>
   </g>
   <g id="legend_1">
    <g id="patch_31">
     <path d="M 613.90125 90.85425 
L 735.941875 90.85425 
Q 737.941875 90.85425 737.941875 88.85425 
L 737.941875 31.14175 
Q 737.941875 29.14175 735.941875 29.14175 
L 613.90125 29.14175 
Q 611.90125 29.14175 611.90125 31.14175 
L 611.90125 88.85425 
Q 611.90125 90.85425 613.90125 90.85425 
z
" style="fill: #e5e5e5; opacity: 0.8; stroke: #cccccc; stroke-width: 0.5; stroke-linejoin: miter"/>
    </g>
    <g id="text_17">
     <!-- Subreddit -->
     <g transform="translate(650.687188 40.740187) scale(0.1 -0.1)">
      <use xlink:href="#DejaVuSans-53"/>
      <use xlink:href="#DejaVuSans-75" x="63.476562"/>
      <use xlink:href="#DejaVuSans-62" x="126.855469"/>
      <use xlink:href="#DejaVuSans-72" x="190.332031"/>
      <use xlink:href="#DejaVuSans-65" x="229.195312"/>
      <use xlink:href="#DejaVuSans-64" x="290.71875"/>
      <use xlink:href="#DejaVuSans-64" x="354.195312"/>
      <use xlink:href="#DejaVuSans-69" x="417.671875"/>
      <use xlink:href="#DejaVuSans-74" x="445.455078"/>
     </g>
    </g>
    <g id="patch_32">
     <path d="M 615.90125 55.418313 
L 635.90125 55.418313 
L 635.90125 48.418313 
L 615.90125 48.418313 
z
" style="fill: #1f77b4"/>
    </g>
    <g id="text_18">
     <!-- Am I the Asshole -->
     <g transform="translate(643.90125 55.418313) scale(0.1 -0.1)">
      <defs>
       <path id="DejaVuSans-49" d="M 628 4666 
L 1259 4666 
L 1259 0 
L 628 0 
L 628 4666 
z
" transform="scale(0.015625)"/>
      </defs>
      <use xlink:href="#DejaVuSans-41"/>
      <use xlink:href="#DejaVuSans-6d" x="68.408203"/>
      <use xlink:href="#DejaVuSans-20" x="165.820312"/>
      <use xlink:href="#DejaVuSans-49" x="197.607422"/>
      <use xlink:href="#DejaVuSans-20" x="227.099609"/>
      <use xlink:href="#DejaVuSans-74" x="258.886719"/>
      <use xlink:href="#DejaVuSans-68" x="298.095703"/>
      <use xlink:href="#DejaVuSans-65" x="361.474609"/>
      <use xlink:href="#DejaVuSans-20" x="422.998047"/>
      <use xlink:href="#DejaVuSans-41" x="454.785156"/>
      <use xlink:href="#DejaVuSans-73" x="523.193359"/>
      <use xlink:href="#DejaVuSans-73" x="575.292969"/>
      <use xlink:href="#DejaVuSans-68" x="627.392578"/>
      <use xlink:href="#DejaVuSans-6f" x="690.771484"/>
      <use xlink:href="#DejaVuSans-6c" x="751.953125"/>
      <use xlink:href="#DejaVuSans-65" x="779.736328"/>
     </g>
    </g>
    <g id="patch_33">
     <path d="M 615.90125 70.096438 
L 635.90125 70.096438 
L 635.90125 63.096438 
L 615.90125 63.096438 
z
" style="fill: #aec7e8"/>
    </g>
    <g id="text_19">
     <!-- Confessions -->
     <g transform="translate(643.90125 70.096438) scale(0.1 -0.1)">
      <defs>
       <path id="DejaVuSans-66" d="M 2375 4863 
L 2375 4384 
L 1825 4384 
Q 1516 4384 1395 4259 
Q 1275 4134 1275 3809 
L 1275 3500 
L 2222 3500 
L 2222 3053 
L 1275 3053 
L 1275 0 
L 697 0 
L 697 3053 
L 147 3053 
L 147 3500 
L 697 3500 
L 697 3744 
Q 697 4328 969 4595 
Q 1241 4863 1831 4863 
L 2375 4863 
z
" transform="scale(0.015625)"/>
      </defs>
      <use xlink:href="#DejaVuSans-43"/>
      <use xlink:href="#DejaVuSans-6f" x="69.824219"/>
      <use xlink:href="#DejaVuSans-6e" x="131.005859"/>
      <use xlink:href="#DejaVuSans-66" x="194.384766"/>
      <use xlink:href="#DejaVuSans-65" x="229.589844"/>
      <use xlink:href="#DejaVuSans-73" x="291.113281"/>
      <use xlink:href="#DejaVuSans-73" x="343.212891"/>
      <use xlink:href="#DejaVuSans-69" x="395.3125"/>
      <use xlink:href="#DejaVuSans-6f" x="423.095703"/>
      <use xlink:href="#DejaVuSans-6e" x="484.277344"/>
      <use xlink:href="#DejaVuSans-73" x="547.65625"/>
     </g>
    </g>
    <g id="patch_34">
     <path d="M 615.90125 84.774563 
L 635.90125 84.774563 
L 635.90125 77.774563 
L 615.90125 77.774563 
z
" style="fill: #ff7f0e"/>
    </g>
    <g id="text_20">
     <!-- Today I Fucked Up -->
     <g transform="translate(643.90125 84.774563) scale(0.1 -0.1)">
      <defs>
       <path id="DejaVuSans-63" d="M 3122 3366 
L 3122 2828 
Q 2878 2963 2633 3030 
Q 2388 3097 2138 3097 
Q 1578 3097 1268 2742 
Q 959 2388 959 1747 
Q 959 1106 1268 751 
Q 1578 397 2138 397 
Q 2388 397 2633 464 
Q 2878 531 3122 666 
L 3122 134 
Q 2881 22 2623 -34 
Q 2366 -91 2075 -91 
Q 1284 -91 818 406 
Q 353 903 353 1747 
Q 353 2603 823 3093 
Q 1294 3584 2113 3584 
Q 2378 3584 2631 3529 
Q 2884 3475 3122 3366 
z
" transform="scale(0.015625)"/>
       <path id="DejaVuSans-6b" d="M 581 4863 
L 1159 4863 
L 1159 1991 
L 2875 3500 
L 3609 3500 
L 1753 1863 
L 3688 0 
L 2938 0 
L 1159 1709 
L 1159 0 
L 581 0 
L 581 4863 
z
" transform="scale(0.015625)"/>
       <path id="DejaVuSans-55" d="M 556 4666 
L 1191 4666 
L 1191 1831 
Q 1191 1081 1462 751 
Q 1734 422 2344 422 
Q 2950 422 3222 751 
Q 3494 1081 3494 1831 
L 3494 4666 
L 4128 4666 
L 4128 1753 
Q 4128 841 3676 375 
Q 3225 -91 2344 -91 
Q 1459 -91 1007 375 
Q 556 841 556 1753 
L 556 4666 
z
" transform="scale(0.015625)"/>
      </defs>
      <use xlink:href="#DejaVuSans-54"/>
      <use xlink:href="#DejaVuSans-6f" x="44.083984"/>
      <use xlink:href="#DejaVuSans-64" x="105.265625"/>
      <use xlink:href="#DejaVuSans-61" x="168.742188"/>
      <use xlink:href="#DejaVuSans-79" x="230.021484"/>
      <use xlink:href="#DejaVuSans-20" x="289.201172"/>
      <use xlink:href="#DejaVuSans-49" x="320.988281"/>
      <use xlink:href="#DejaVuSans-20" x="350.480469"/>
      <use xlink:href="#DejaVuSans-46" x="382.267578"/>
      <use xlink:href="#DejaVuSans-75" x="434.287109"/>
      <use xlink:href="#DejaVuSans-63" x="497.666016"/>
      <use xlink:href="#DejaVuSans-6b" x="552.646484"/>
      <use xlink:href="#DejaVuSans-65" x="606.931641"/>
      <use xlink:href="#DejaVuSans-64" x="668.455078"/>
      <use xlink:href="#DejaVuSans-20" x="731.931641"/>
      <use xlink:href="#DejaVuSans-55" x="763.71875"/>
      <use xlink:href="#DejaVuSans-70" x="836.912109"/>
     </g>
    </g>
   </g>
  </g>
 </g>
 <defs>
  <clipPath id="pb5592a643b">
   <rect x="48.90125" y="24.14175" width="558" height="332.64"/>
  </clipPath>
 </defs>
</svg>
